<?xml version="1.0" encoding="UTF-8" standalone="no"?>
<svg
   xmlns:dc="http://purl.org/dc/elements/1.1/"
   xmlns:cc="http://creativecommons.org/ns#"
   xmlns:rdf="http://www.w3.org/1999/02/22-rdf-syntax-ns#"
   xmlns:svg="http://www.w3.org/2000/svg"
   xmlns="http://www.w3.org/2000/svg"
   xmlns:sodipodi="http://sodipodi.sourceforge.net/DTD/sodipodi-0.dtd"
   xmlns:inkscape="http://www.inkscape.org/namespaces/inkscape"
   viewBox="0 0 2971.14 1652.63"
   version="1.1"
   id="svg54"
   sodipodi:docname="groovybackground_grey3.svg"
   inkscape:version="0.92.4 (5da689c313, 2019-01-14)">
  <metadata
     id="metadata58">
    <rdf:RDF>
      <cc:Work
         rdf:about="">
        <dc:format>image/svg+xml</dc:format>
        <dc:type
           rdf:resource="http://purl.org/dc/dcmitype/StillImage" />
      </cc:Work>
    </rdf:RDF>
  </metadata>
  <sodipodi:namedview
     pagecolor="#ffffff"
     bordercolor="#666666"
     borderopacity="1"
     objecttolerance="10"
     gridtolerance="10"
     guidetolerance="10"
     inkscape:pageopacity="0"
     inkscape:pageshadow="2"
     inkscape:window-width="1920"
     inkscape:window-height="1147"
     id="namedview56"
     showgrid="false"
     inkscape:zoom="0.54071725"
     inkscape:cx="258.49642"
     inkscape:cy="915.3429"
     inkscape:window-x="-8"
     inkscape:window-y="23"
     inkscape:window-maximized="1"
     inkscape:current-layer="svg54" />
  <defs
     id="defs4">
    <style
       id="style2">.cls-1{fill:#36393f;}.cls-2{fill:#494951;}.cls-3,.cls-4,.cls-5,.cls-6{fill:none;stroke-linecap:round;stroke-linejoin:round;stroke-width:20px;}.cls-3,.cls-4,.cls-5{stroke:#6a6c6d;}.cls-4{stroke-dasharray:140.05 140.05 112.04 93.37 186.74 140.05;}.cls-5{stroke-dasharray:93.37 186.74 140.05 140.05 112.04 93.37;}.cls-6{stroke:#494951;stroke-dasharray:100 200 150 150 120;}</style>
  </defs>
  <title
     id="title6">groovybackground_grey3</title>
  <g
     id="Layer_1"
     data-name="Layer 1"
     transform="matrix(1.5795237,0,0,1.5795237,-647.35126,-915.44181)"
     style="stroke-width:0.63310224">
    <rect
       class="cls-1"
       x="391"
       y="572.63"
       width="1920"
       height="1080"
       id="rect8"
       style="fill:#36393f;stroke-width:0.39183787" />
  </g>
  <path
     style="fill:#494951;stroke-width:1"
     inkscape:connector-curvature="0"
     id="path11"
     d="m 643.0623,1324.7225 a 42.839609,42.839609 0 0 1 -62.89608,-44.4941 2.7038581,2.7038581 0 0 0 -2.05357,-3.103 l -81.88011,-18.5848 a 2.7152667,2.7152667 0 0 0 -3.25149,2.1107 132.15819,132.15819 0 0 0 197.55278,139.7905 2.7152667,2.7152667 0 0 0 0.90128,-3.7648 l -44.75627,-71.0305 a 2.7038581,2.7038581 0 0 0 -3.61654,-0.924 z m -20.63831,-169.6701 a 131.46227,131.46227 0 0 0 -68.09844,18.8815 2.7038581,2.7038581 0 0 0 -0.88987,3.7648 l 44.75627,71.019 a 2.6924494,2.6924494 0 0 0 3.5709,0.947 42.839609,42.839609 0 0 1 63.48933,37.5231 42.99933,42.99933 0 0 1 -0.57043,7.005 2.6924494,2.6924494 0 0 0 2.07638,3.0575 l 81.86871,18.5733 a 2.7152667,2.7152667 0 0 0 3.26289,-2.0991 132.23806,132.23806 0 0 0 -129.46574,-158.6721 z m -95.3766,44.6993 61.8693,56.7239 a 2.7152667,2.7152667 0 0 0 3.70781,0 v 0 a 2.7038581,2.7038581 0 0 0 0.17114,-3.7078 l -54.61338,-63.8201 a 2.7152667,2.7152667 0 0 0 -3.86754,-0.2511 q -3.84474,3.4227 -7.43845,7.1875 a 2.7038581,2.7038581 0 0 0 0.17112,3.8676 z M 652.2691,1317.957 v 0 a 2.7038581,2.7038581 0 0 0 -0.17113,3.7078 l 54.62479,63.729 a 2.7152667,2.7152667 0 0 0 3.86754,0.251 c 2.56696,-2.2818 5.05404,-4.6891 7.42705,-7.1875 a 2.7038581,2.7038581 0 0 0 -0.12549,-3.8675 l -61.8693,-56.724 a 2.7038581,2.7038581 0 0 0 -3.75346,0.091 z"
     class="cls-2" />
  <path
     style="fill:#494951;stroke-width:1"
     inkscape:connector-curvature="0"
     id="path13"
     d="m 2471.3304,797.63449 a 41.594483,41.594483 0 0 1 -61.572,-34.97608 43.356134,43.356134 0 0 1 0.5258,-8.20878 2.5935384,2.5935384 0 0 0 -2.0062,-2.97278 l -79.5188,-18.03244 a 2.6302395,2.6302395 0 0 0 -3.1563,2.04306 128.25782,128.25782 0 0 0 191.7138,135.65914 2.6302395,2.6302395 0 0 0 0.8686,-3.67012 l -43.4295,-68.92447 a 2.6302395,2.6302395 0 0 0 -3.4254,-0.91753 z M 2451.3038,632.9815 a 127.7073,127.7073 0 0 0 -66.0618,18.3505 2.6424731,2.6424731 0 0 0 -0.8685,3.67011 l 43.4417,68.93672 a 2.6057722,2.6057722 0 0 0 3.4621,0.90527 41.594483,41.594483 0 0 1 61.0583,43.22158 2.6180058,2.6180058 0 0 0 2.0185,2.96059 l 79.5189,18.03244 a 2.6302395,2.6302395 0 0 0 3.1564,-2.04305 128.31899,128.31899 0 0 0 -125.7256,-154.03416 z m -92.5599,43.3806 60.0429,55.05153 a 2.6180058,2.6180058 0 0 0 3.5966,0 v 0 a 2.6180058,2.6180058 0 0 0 0.1714,-3.59668 l -53.0208,-61.93912 a 2.6302395,2.6302395 0 0 0 -3.7558,-0.24467 q -3.7435,3.33979 -7.2178,6.97319 a 2.6302395,2.6302395 0 0 0 0.1835,3.75575 z m 121.4682,114.71513 v 0 a 2.6180058,2.6180058 0 0 0 -0.1592,3.5845 l 53.0086,61.85338 a 2.6302395,2.6302395 0 0 0 3.7557,0.24473 q 3.7435,-3.33977 7.2056,-6.97325 a 2.6302395,2.6302395 0 0 0 -0.1223,-3.75569 l -60.0429,-55.05157 a 2.6424731,2.6424731 0 0 0 -3.6455,0.0979 z"
     class="cls-2" />
  <path
     style="fill:#494951;stroke-width:1"
     inkscape:connector-curvature="0"
     id="path15"
     d="m 1368.7516,1083.7861 12.0821,200.7708 a 25.657882,25.657882 0 0 1 -17.7826,25.9764 l -25.0648,8.3037 a 13.268288,13.268288 0 0 1 -17.2993,-11.8404 l -1.2192,-20.3747 a 22.51655,22.51655 0 0 1 15.1795,-22.7034 l 13.2572,-5.6785 a 22.51655,22.51655 0 0 0 15.1686,-22.6594 l -4.9647,-82.8059 a 22.527533,22.527533 0 0 0 -29.7438,-19.9684 l -62.9804,22.9119 a 22.538517,22.538517 0 0 0 -15.2234,22.6815 l 8.7869,147.4338 a 25.668867,25.668867 0 0 1 -17.7276,25.9546 l -25.0209,8.2596 a 13.268288,13.268288 0 0 1 -17.2882,-11.8404 l -1.2302,-20.3747 a 22.538517,22.538517 0 0 1 15.1794,-22.6593 l 13.2462,-5.6676 a 22.527533,22.527533 0 0 0 15.1795,-22.6593 l -8.8968,-148.4444 a 22.505566,22.505566 0 0 1 15.3771,-22.7254 l 92.0873,-29.9085 11.434,-3.7894 a 13.268288,13.268288 0 0 1 17.4641,11.8074 z"
     class="cls-2" />
  <path
     style="fill:#494951;stroke-width:0.99999994"
     inkscape:connector-curvature="0"
     id="path17"
     d="m 1411.2994,161.59217 -43.3575,188.72169 a 24.703231,24.703231 0 0 1 -23.4871,19.16192 l -25.38,0.83543 a 12.774616,12.774616 0 0 1 -12.7535,-15.64045 l 4.3992,-19.14077 a 21.699928,21.699928 0 0 1 20.1772,-16.80369 l 13.7475,-1.6497 a 21.668203,21.668203 0 0 0 20.1771,-16.80371 l 17.9036,-77.8321 a 21.678778,21.678778 0 0 0 -22.0384,-26.52213 l -64.4019,4.06081 a 21.678778,21.678778 0 0 0 -20.2194,16.80369 l -31.8836,138.57498 a 24.713807,24.713807 0 0 1 -23.4872,19.16192 l -25.38,0.83543 a 12.785191,12.785191 0 0 1 -12.764,-15.64044 l 4.4203,-19.15136 a 21.668203,21.668203 0 0 1 20.1772,-16.79311 l 13.7475,-1.64971 a 21.689353,21.689353 0 0 0 20.1771,-16.80369 l 32.1057,-139.59019 a 21.668203,21.668203 0 0 1 20.3887,-16.80369 l 93.2716,-2.56973 11.6325,-0.39127 a 12.774616,12.774616 0 0 1 12.8274,15.62987 z"
     class="cls-2" />
  <circle
     style="fill:#494951;stroke-width:1"
     id="circle19"
     r="134.55937"
     cy="839.98395"
     cx="773.55084"
     class="cls-2" />
  <circle
     style="fill:#494951;stroke-width:1"
     id="circle21"
     r="72.437195"
     cy="801.94385"
     cx="497.81464"
     class="cls-2" />
  <circle
     style="fill:#494951;stroke-width:1"
     id="circle23"
     r="39.254436"
     cy="909.80151"
     cx="345.9953"
     class="cls-2" />
  <circle
     style="fill:#494951;stroke-width:1"
     id="circle25"
     r="17.655626"
     cy="889.56689"
     cx="197.64169"
     class="cls-2" />
  <circle
     style="fill:#494951;stroke-width:1"
     id="circle27"
     r="117.64052"
     cy="1378.3757"
     cx="1957.8445"
     class="cls-2" />
  <circle
     style="fill:#494951;stroke-width:1"
     id="circle29"
     r="63.336487"
     cy="1387.1763"
     cx="2201.0391"
     class="cls-2" />
  <circle
     style="fill:#494951;stroke-width:1"
     id="circle31"
     r="34.315231"
     cy="1502.934"
     cx="2315.5144"
     class="cls-2" />
  <circle
     style="fill:#494951;stroke-width:1"
     id="circle33"
     r="15.445266"
     cy="1507.8868"
     cx="2446.3215"
     class="cls-2" />
  <path
     style="fill:#494951;stroke-width:0.99999994"
     inkscape:connector-curvature="0"
     id="path35"
     d="m 1827.4735,262.03617 -84.0275,218.41835 a 34.091753,34.091753 0 0 0 37.1312,45.91408 l 231.1305,-36.43773 a 34.10331,34.10331 0 0 0 21.2293,-55.12462 L 1885.7992,252.83718 a 34.091753,34.091753 0 0 0 -58.3257,9.24521 l -84.0275,218.41836 a 34.091753,34.091753 0 0 0 37.1312,45.91408 l 231.1305,-36.43773 a 34.10331,34.10331 0 0 0 21.2293,-55.17085 L 1885.7992,252.83718 a 34.091753,34.091753 0 0 0 -58.3257,9.19899 z"
     class="cls-2" />
  <path
     style="fill:#494951;stroke-width:1"
     inkscape:connector-curvature="0"
     id="path37"
     d="m 2188.0993,328.12936 56.6645,-147.35764 a 22.99052,22.99052 0 0 0 -25.0372,-30.95875 l -155.8853,24.55961 a 22.99052,22.99052 0 0 0 -14.2991,37.16687 l 99.2208,122.78439 a 22.99052,22.99052 0 0 0 39.3363,-6.19448 l 56.6645,-147.35764 a 22.99052,22.99052 0 0 0 -25.0372,-30.95875 l -155.8853,24.55961 a 22.99052,22.99052 0 0 0 -14.2991,37.16687 l 99.2208,122.78439 a 22.99052,22.99052 0 0 0 39.3363,-6.19448 z"
     class="cls-2" />
  <path
     style="fill:#494951;stroke-width:1"
     inkscape:connector-curvature="0"
     id="path39"
     d="m 2538.6467,178.49315 12.4709,-32.40504 a 5.0620078,5.0620078 0 0 0 -5.4577,-6.82213 l -34.2878,5.4577 a 5.0620078,5.0620078 0 0 0 -3.152,8.18654 l 21.8308,27.00191 a 5.0620078,5.0620078 0 0 0 8.6504,-1.36441 l 12.471,-32.40504 a 5.0620078,5.0620078 0 0 0 -5.4578,-6.82212 l -34.2879,5.4577 a 5.0620078,5.0620078 0 0 0 -3.1518,8.18653 l 21.8308,27.00192 a 5.0620078,5.0620078 0 0 0 8.5411,-1.47356 z"
     class="cls-2" />
  <path
     style="fill:#494951;stroke-width:1"
     inkscape:connector-curvature="0"
     id="path41"
     d="m 2371.0958,255.18734 -31.6819,82.35654 a 12.85286,12.85286 0 0 0 13.999,17.24631 l 87.1593,-13.73974 a 12.85286,12.85286 0 0 0 7.9954,-20.78015 l -55.4772,-68.61682 a 12.85286,12.85286 0 0 0 -21.9946,3.46563 l -31.6819,82.35655 a 12.85286,12.85286 0 0 0 13.999,17.31453 l 87.1593,-13.73974 a 12.85286,12.85286 0 0 0 7.9954,-20.78015 l -55.4772,-68.61682 a 12.85286,12.85286 0 0 0 -21.9946,3.53386 z"
     class="cls-2" />
  <path
     style="fill:none;stroke:#494951;stroke-width:19.99999809px;stroke-linecap:round;stroke-linejoin:round;stroke-dasharray:100.00000138, 200.00000277, 150.00000206, 150.00000206, 120.00000165"
     inkscape:connector-curvature="0"
     id="path51"
     d="m -305.95381,668.03621 c 429.09342,-383.05032 1106.5196,-360.46313 1504.44901,85.29423 397.9294,445.75746 1356.8899,441.58756 1740.9985,98.70447 384.1085,-342.883 916.5028,-259.70528 916.5028,-259.70528"
     class="cls-6" />
  <path
     style="fill:#494951;stroke-width:1"
     inkscape:connector-curvature="0"
     id="path41-3"
     d="m 379.99285,155.78332 -55.02678,68.98113 a 12.85286,12.85286 0 0 0 8.15122,20.66313 l 87.24814,13.16381 a 12.85286,12.85286 0 0 0 13.8857,-17.40484 l -32.22118,-82.14491 a 12.85286,12.85286 0 0 0 -22.01654,-3.32338 l -55.02678,68.98114 a 12.85286,12.85286 0 0 0 8.13066,20.72818 l 87.24814,13.16381 a 12.85286,12.85286 0 0 0 13.8857,-17.40484 l -32.22118,-82.14491 a 12.85286,12.85286 0 0 0 -22.0371,-3.25832 z"
     class="cls-2" />
  <path
     style="fill:#494951;stroke-width:1"
     inkscape:connector-curvature="0"
     id="path41-7"
     d="M 635.29641,126.77349 494.57638,100.10538 a 20.861759,20.861759 0 0 0 -23.47404,27.36535 l 47.26153,135.19433 a 20.861759,20.861759 0 0 0 35.50681,6.73118 l 93.45857,-108.52591 a 20.861759,20.861759 0 0 0 -11.9239,-34.11667 l -140.72002,-26.6681 a 20.861759,20.861759 0 0 0 -23.58299,27.38517 l 47.26153,135.19433 a 20.861759,20.861759 0 0 0 35.50681,6.73118 l 93.45857,-108.52591 a 20.861759,20.861759 0 0 0 -12.03284,-34.09684 z"
     class="cls-2" />
</svg>
